<?xml version="1.0" standalone="no"?>
<!DOCTYPE svg PUBLIC "-//W3C//DTD SVG 20010904//EN"
 "http://www.w3.org/TR/2001/REC-SVG-20010904/DTD/svg10.dtd">
<svg version="1.0" xmlns="http://www.w3.org/2000/svg"
 width="512.000000pt" height="512.000000pt" viewBox="0 0 512.000000 512.000000"
 preserveAspectRatio="xMidYMid meet">
<metadata>
Created by potrace 1.11, written by Peter Selinger 2001-2013
</metadata>
<g transform="translate(0.000000,512.000000) scale(0.100000,-0.100000)"
fill="#000000" stroke="none">
<path d="M1161 5110 c-70 -11 -133 -35 -159 -63 -37 -39 -62 -112 -69 -197
l-6 -80 -42 0 c-62 0 -143 -17 -192 -41 -55 -27 -89 -93 -103 -204 -16 -119
-8 -1604 9 -1667 19 -71 49 -110 110 -139 30 -15 57 -33 61 -40 5 -8 2 -48 -6
-89 -24 -123 -29 -424 -10 -565 65 -488 284 -886 649 -1177 172 -137 405 -258
544 -282 40 -7 82 -21 92 -30 10 -9 26 -47 36 -84 73 -286 93 -337 142 -384
50 -48 103 -61 273 -66 163 -5 234 5 303 39 62 32 90 82 136 251 58 211 59
213 80 232 10 9 46 21 80 27 92 14 142 33 296 109 409 203 709 548 864 994 93
264 121 611 75 909 -9 54 -13 104 -11 112 3 7 29 21 57 30 64 21 104 54 123
103 35 87 38 181 35 972 -3 708 -5 780 -21 828 -36 106 -100 147 -248 159
l-76 6 -6 78 c-11 141 -57 211 -160 246 -49 17 -141 18 -1427 19 -756 1 -1399
-2 -1429 -6z"/>
</g>
</svg>
